# xmcd
#
# Track frame offsets:
#	150
#	19839
#	42126
#	65430
#	92186
#	112737
#	118177
#	140946
#	162677
#	168481
#	188838
#	196082
#	213414
#	234954
#	244875
#	269045
#	293996
#	321287
#	341209
#
# Disc length: 4750 seconds
#
# Revision: 1
# Processed by: cddbd v1.4PL0 Copyright (c) Steve Scherf et al.
# Submitted via: EasyCDDAExtractor 5.0.6
#
DISCID=2a128c13
DTITLE=Ludacris - Word Of Mouf
DYEAR=2001
DGENRE=R&B
TTITLE0=Coming 2 America
TTITLE1=Rollout (My Business)
TTITLE2=Go 2 Sleep
TTITLE3=Cry Babies
TTITLE4=She Said
TTITLE5=Howhere (Skit)
TTITLE6=Area Codes
TTITLE7=Growing Pains
TTITLE8=Greatest Hits
TTITLE9=Move Bitch
TTITLE10=Stop Lying
TTITLE11=Saturday
TTITLE12=Keep It On The Hush
TTITLE13=Word Of Mouf
TTITLE14=Get The Fuck Back
TTITLE15=Freaky Thangs
TTITLE16=Cold Outside
TTITLE17=Block Lockdown (Bonus)
TTITLE18=Welcome To Atlanta (Hidden)
EXTD=
EXTT0=
EXTT1=
EXTT2=
EXTT3=
EXTT4=
EXTT5=
EXTT6=
EXTT7=
EXTT8=
EXTT9=
EXTT10=
EXTT11=
EXTT12=
EXTT13=
EXTT14=
EXTT15=
EXTT16=
EXTT17=
EXTT18=
PLAYORDER=
